<svg id="Layer_1" data-name="Layer 1" xmlns="http://www.w3.org/2000/svg" viewBox="0 0 26.3 26.3"><defs><style>.cls-1{fill:none;stroke:#9e9e9e;stroke-miterlimit:10;}</style></defs><path class="cls-1" d="M23.65,2.35H6.35a4,4,0,0,0-4,4v17.3a4,4,0,0,0,4,4h8.5V17.35H12.19a0,0,0,0,1,0,0V13.88a0,0,0,0,1,0,0h2.67V10.7S14.69,7.22,19,7.22h3.28a0,0,0,0,1,0,0v3.4s0,0,0,0a17.38,17.38,0,0,0-2.39,0c-.31.05-.91.34-.91.91s0,2.24,0,2.24H22a.13.13,0,0,1,.13.13c-.06.59-.29,2.91-.36,3.36,0,0,0,0,0,0H19v10.3h4.68a4,4,0,0,0,4-4V6.35A4,4,0,0,0,23.65,2.35Z" transform="translate(-1.85 -1.85)"/></svg>