<svg id="Layer_1" data-name="Layer 1" xmlns="http://www.w3.org/2000/svg" xmlns:xlink="http://www.w3.org/1999/xlink" viewBox="0 0 161 51"><defs><style>.cls-1{fill:#7a7a7a;}.cls-2{fill:none;stroke:#fff;stroke-miterlimit:10;}</style><symbol id="MP2" data-name="MP2" viewBox="0 0 1050.86 306.28"><path class="cls-1" d="M187.28,11.32C176.57,21,165.91,30.76,155.13,40.38S133.45,59.64,122.41,69a24.59,24.59,0,0,1-8.48,4.32c-1.18.37-3.73-.9-4.29-2.07-.47-1,.61-3.4,1.71-4.36C125.57,54.52,140,42.3,154.24,30c9.44-8.16,18.65-16.6,28.29-24.52,3.76-3.1,8.53-7,13.55-3.21s2.34,9.3.67,13.93c-8.33,23.11-17.23,46-25.1,69.26-3.9,11.54-6,23.69-8.93,35.57l1.79.88c1.74-2.16,3.61-4.23,5.21-6.49,16.33-23.23,31.82-47.11,49.21-69.52,11.14-14.37,25-26.65,37.77-39.73a17.38,17.38,0,0,1,7-4.57c3.44-1,8.15-2.42,10.57-.89s3.78,6.53,3.56,9.88c-.42,6.57-2.06,13.1-3.56,19.56-3.49,15.1-7.34,30.11-10.68,45.24-.79,3.56-.12,7.44-.12,12.49,3.28-1.85,5.83-2.89,7.88-4.53,9.76-7.79,19.26-15.91,29.12-23.57a64.76,64.76,0,0,1,13.82-8.49c7-3,12.46-.39,13.5,7.12,1.51,10.92,1.2,22.08,2.48,33.05a67.17,67.17,0,0,0,4.87,18.48c3.06,7.15,10.35,10.25,18.06,9.09,12.93-2,23.93-8.12,34.09-16,1.36-1.05,2.15-3.24,2.56-5.05a65.32,65.32,0,0,1,15.41-29,20.47,20.47,0,0,1,3.65-3c3.08-2.15,8-1.94,11.15-.7,4.39,1.73,3.79,6.61,2.75,10.65a61.2,61.2,0,0,1-2.68,6.88c1.54-.54,2.54-.93,3.57-1.26,5.48-1.75,8.58.24,9.12,6,.19,2,0,4,.1,6s.31,3.9.61,7.56c4.75-2.61,8.61-4.43,12.15-6.75,7.42-4.84,14.35-10.52,22.08-14.75a55.61,55.61,0,0,1,18.11-6c8.48-1.27,13.75,3.3,15.19,11.84.7,4.12.69,8.35,1.1,13.76,2.54-2.15,4.45-3.74,6.34-5.36,8.88-7.62,17.66-15.41,29.19-18.91,9.29-2.82,16.5-.59,22.39,7.2,3.52,4.65,6.58,9.65,9.9,14.45s8.08,7.06,13.63,5.8c19.62-4.44,35.55-8.44,55.13-13.06,3.6-.85,8.72-3.37,9-7.39,3.06-10.65,7.65-18.33,16.65-23.71,5.4-3.23,12.22-2.63,15.11,1a11.24,11.24,0,0,1-.25,15.07c-4.82,5.51-11,9.81-16.66,14.6-.91.77-2,1.35-3.28,2.24,4,5,9.56,5.46,14.74,5.41q20.83-.23,41.65-1.54c27.52-1.7,55-3.49,82.54-5.68C821.14,87.38,844,85,866.8,82.74c16.82-1.64,33.63-3.47,50.46-5,1.55-.14,3.26,1.51,4.9,2.33-1,1.74-1.57,4.32-3,5a26.22,26.22,0,0,1-8.76,2C873.67,90.6,837,94.5,800.29,97.32c-40.34,3.08-80.76,5.28-121.16,7.56-10,.57-19.74-.79-27.38-8.61-.89-.91-3.35-.81-4.91-.44-18.78,4.53-37.5,9.3-56.28,13.78-14.47,3.45-22.09.21-30.24-12.33-1.54-2.36-3-4.76-4.58-7.12-5.9-8.93-10.84-10.64-20.31-5.35-7,3.89-13.28,9-19.7,13.84-4,3-7.49,6.79-11.62,9.62-1.89,1.3-5.43,2.27-7.05,1.34-1.93-1.11-3.38-4.32-3.67-6.78-.59-5-.07-10-.36-15-.29-5.18-3.66-7.38-8.28-5.88a86.36,86.36,0,0,0-17.08,7.32c-6.59,3.84-12.57,8.72-18.86,13.08a43.85,43.85,0,0,1-6.21,3.7c-11.23,5.31-17.27,1.62-18-10.86,0-.8-.15-1.59-.36-3.58-2.16,1.71-3.81,2.9-5.34,4.24-4.56,4-8.92,8.17-13.67,11.9-2.12,1.66-5.37,3.82-7.44,3.26-5.9-1.58-9.44,1.93-13.6,4.52C374,121.8,363.43,127,351,127.08c-12.64.06-21.72-5.29-25.17-17.5-2.81-9.93-3.52-20.5-4.68-30.84-.73-6.5-.58-13.1-.9-21.67-5.34,3.23-9.26,5.08-12.58,7.7-9.82,7.72-19.34,15.8-29.09,23.6a51.53,51.53,0,0,1-9.1,5.9c-7.21,3.6-13.87.71-14-7.19a138.42,138.42,0,0,1,3.13-29.21c2.92-14.38,7-28.54,10.44-42.82a51.11,51.11,0,0,0,.75-6.21l-1.49-1.09c-5.4,4.35-11.1,8.38-16.15,13.11-20.74,19.41-37,42.49-53,65.75-8.32,12.12-16.42,24.39-24.82,36.46a45,45,0,0,1-8,9c-5.07,4.21-10.82,1.78-11-4.84a84,84,0,0,1,1.6-18c5.83-30.45,17.54-59,28.82-87.66,1.16-2.94,2.17-5.92,3.25-8.88ZM656.09,81.89c10.28-3.5,22.17-13.34,17.23-17.16C667.07,59.9,658.62,72,656.09,81.89Zm-255,6.16c-.42,3.71,2.28,3.81,3.13,3.71,6.65-.78,12.49-9.94,11.43-16.55a2.64,2.64,0,0,0-2.71-1.72C406.35,73.79,401.79,81.8,401.08,88.05Z"/><path class="cls-1" d="M837.37,293.11v12.62h-49V192.53h47.14v12.11h-33v36.29h30.86v11.85h-31v40.33Z"/><path class="cls-1" d="M379.71,192.46h47.06v12.09H393.66v36.09h30.76v12.25H393.56v40.16h34.8v12.74H379.71Z"/><path class="cls-1" d="M208,192.45h13.38V305.72H208Z"/><path class="cls-1" d="M575.35,7.93c3.72,0,5.58,4.48,5.34,7s-1.72,3.31-3.62,2.92a8.24,8.24,0,0,1-5.68-5C570.23,9.56,572.31,7.91,575.35,7.93Z"/><path class="cls-1" d="M1029.83,252.7c10.92-3.95,16.23-11.73,18.35-22.08,3.9-19-5.39-35.62-22.5-37.62-11.88-1.39-24.06-.27-36.44-.27V305.85h13.67v-50c12.86-1.67,12.85-1.67,17.07,9.42,4.66,12.21,9.44,24.39,13.92,36.66,1.14,3.1,2.51,4.64,6,4.29,3.34-.33,6.74-.07,10.95-.07Zm-26.51-8.59V204.34c10.06.81,21.19-3.25,28,7.25,5.06,7.84,4.83,16.81-.07,24.67C1024.61,246.86,1013.57,243.4,1003.32,244.11Z"/><path class="cls-1" d="M56.73,211.72c-3.35-10.82-10.89-17.83-22.06-18.84-11.36-1-22.88-.22-34.67-.22v113H13.91V257.35c4.8,0,9.17.1,13.53,0,14.76-.4,24.68-7,28.91-19.48A41.63,41.63,0,0,0,56.73,211.72ZM40.87,237.88c-6.28,10.17-16.84,6.94-26.69,7.54v-41c9.93.71,20.94-3.14,27.16,7.55A24.52,24.52,0,0,1,40.87,237.88Z"/><path class="cls-1" d="M637.22,211.72c-3.35-10.81-10.89-17.83-22.06-18.84-11.36-1-22.88-.22-34.68-.22v113h13.91V257.35c4.81,0,9.17.1,13.53,0,14.77-.39,24.68-7,28.91-19.47A41.66,41.66,0,0,0,637.22,211.72Zm-16.3,26.77c-6.46,9.53-16.72,6.33-26.32,6.91v-41c10.11.79,21.23-3.12,27.29,7.74C626.65,220.65,626.51,230.24,620.92,238.49Z"/></symbol></defs><use width="1050.86" height="306.28" transform="translate(9.44 4.79) scale(0.14)" xlink:href="#MP2"/><rect class="cls-2" x="0.5" y="0.5" width="160" height="50"/></svg>